<svg width="1088" height="802" viewBox="0 0 1088 802" fill="none" xmlns="http://www.w3.org/2000/svg">
<path d="M707.5 141L705.571 143.92L707.5 141ZM733.5 271.5L734.244 274.92L734.244 274.92L733.5 271.5ZM1085 0L1051.12 22.0341L1087.14 40.3577L1085 0ZM3.90265 801.938C5.82453 800.693 7.758 799.443 9.70278 798.187L5.90572 792.306C3.95828 793.564 2.02207 794.816 0.0973525 796.062L3.90265 801.938ZM21.5051 790.588C25.4778 788.037 29.4934 785.465 33.5498 782.873L29.7805 776.975C25.7201 779.569 21.7002 782.144 17.7229 784.698L21.5051 790.588ZM45.2915 775.385C49.2414 772.871 53.2267 770.339 57.2454 767.789L53.4957 761.879C49.4742 764.43 45.4859 766.964 41.5328 769.48L45.2915 775.385ZM69.1929 760.221C73.1186 757.738 77.0737 755.239 81.0562 752.725L77.3198 746.805C73.3354 749.32 69.3785 751.821 65.4505 754.306L69.1929 760.221ZM93.0849 745.139C97.0239 742.657 100.987 740.161 104.974 737.652L101.246 731.728C97.2581 734.237 93.2934 736.734 89.3531 739.217L93.0849 745.139ZM116.902 730.149C120.899 727.636 124.918 725.11 128.956 722.572L125.231 716.645C121.193 719.183 117.174 721.71 113.176 724.224L116.902 730.149ZM140.818 715.118C144.785 712.625 148.771 710.12 152.771 707.605L149.046 701.679C145.046 704.193 141.061 706.698 137.093 709.191L140.818 715.118ZM164.792 700.048C168.739 697.565 172.7 695.074 176.673 692.573L172.944 686.649C168.972 689.149 165.012 691.64 161.066 694.122L164.792 700.048ZM188.628 685.043C192.613 682.532 196.609 680.012 200.614 677.484L196.878 671.564C192.874 674.092 188.88 676.61 184.896 679.121L188.628 685.043ZM212.504 669.973C216.476 667.462 220.457 664.943 224.444 662.416L220.698 656.503C216.712 659.028 212.734 661.546 208.763 664.056L212.504 669.973ZM236.396 654.835C240.353 652.323 244.315 649.803 248.282 647.278L244.522 641.373C240.558 643.897 236.598 646.415 232.644 648.926L236.396 654.835ZM260.194 639.682C264.162 637.148 268.134 634.608 272.108 632.063L268.332 626.168C264.361 628.712 260.392 631.25 256.426 633.783L260.194 639.682ZM283.977 624.446C287.935 621.902 291.894 619.353 295.852 616.8L292.057 610.918C288.102 613.469 284.147 616.016 280.192 618.558L283.977 624.446ZM307.72 609.127C311.67 606.569 315.619 604.006 319.564 601.439L315.747 595.571C311.805 598.135 307.861 600.696 303.914 603.252L307.72 609.127ZM331.392 593.726C335.334 591.15 339.271 588.571 343.203 585.988L339.361 580.137C335.433 582.717 331.5 585.294 327.563 587.867L331.392 593.726ZM355.014 578.212C358.944 575.616 362.869 573.019 366.785 570.418L362.914 564.586C359.002 567.183 355.083 569.778 351.157 572.37L355.014 578.212ZM378.528 562.599C382.459 559.974 386.381 557.347 390.293 554.719L386.388 548.909C382.482 551.533 378.566 554.157 374.641 556.778L378.528 562.599ZM401.996 546.828C405.896 544.19 409.785 541.55 413.661 538.91L409.72 533.125C405.85 535.761 401.968 538.396 398.074 541.03L401.996 546.828ZM425.365 530.907C429.253 528.239 433.127 525.57 436.985 522.901L433.003 517.145C429.152 519.808 425.285 522.472 421.404 525.136L425.365 530.907ZM448.561 514.861C452.454 512.145 456.33 509.431 460.187 506.716L456.158 500.992C452.31 503.7 448.442 506.41 444.557 509.119L448.561 514.861ZM471.7 498.577C475.549 495.843 479.376 493.111 483.183 490.38L479.102 484.693C475.305 487.417 471.486 490.143 467.647 492.87L471.7 498.577ZM494.701 482.073C498.517 479.307 502.31 476.542 506.077 473.78L501.938 468.135C498.181 470.889 494.398 473.647 490.592 476.406L494.701 482.073ZM517.462 465.383C521.281 462.549 525.072 459.718 528.833 456.891L524.627 451.295C520.878 454.113 517.098 456.936 513.29 459.761L517.462 465.383ZM540.026 448.422C543.821 445.531 547.583 442.644 551.311 439.763L547.03 434.225C543.316 437.096 539.566 439.973 535.784 442.854L540.026 448.422ZM562.478 431.063C566.177 428.158 569.838 425.259 573.461 422.366L569.094 416.896C565.486 419.777 561.839 422.664 558.154 425.558L562.478 431.063ZM584.601 413.391C588.271 410.406 591.898 407.428 595.479 404.458L591.01 399.07C587.447 402.025 583.838 404.989 580.185 407.96L584.601 413.391ZM606.341 395.355C609.991 392.263 613.589 389.18 617.132 386.107L612.545 380.818C609.023 383.873 605.446 386.939 601.816 390.014L606.341 395.355ZM627.639 376.881C631.258 373.662 634.814 370.454 638.305 367.26L633.579 362.096C630.114 365.267 626.582 368.452 622.986 371.65L627.639 376.881ZM648.578 357.715C652.094 354.396 655.536 351.092 658.9 347.803L654.006 342.798C650.673 346.056 647.261 349.332 643.773 352.624L648.578 357.715ZM668.897 337.84C672.281 334.401 675.574 330.979 678.774 327.577L673.676 322.781C670.513 326.143 667.256 329.527 663.907 332.931L668.897 337.84ZM688.358 317.13C691.585 313.518 694.7 309.93 697.699 306.366L692.343 301.859C689.391 305.367 686.322 308.903 683.138 312.466L688.358 317.13ZM706.643 295.363C709.665 291.507 712.542 287.681 715.266 283.887L709.58 279.804C706.917 283.513 704.099 287.261 701.133 291.045L706.643 295.363ZM723.198 272.262C725.907 268.066 728.416 263.911 730.715 259.8L724.606 256.383C722.384 260.355 719.952 264.384 717.317 268.466L723.198 272.262ZM737.23 247.053C739.294 242.575 741.088 238.149 742.597 233.781L735.98 231.497C734.554 235.625 732.849 239.835 730.873 244.123L737.23 247.053ZM746.51 219.613C747.516 214.674 748.112 209.814 748.271 205.043L741.275 204.81C741.13 209.157 740.586 213.627 739.651 218.216L746.51 219.613ZM747.301 190.347C746.464 185.478 745.102 180.738 743.193 176.137L736.728 178.821C738.434 182.932 739.652 187.17 740.402 191.533L747.301 190.347ZM736.049 163.131C733.331 159.218 730.155 155.446 726.512 151.818L721.573 156.778C724.937 160.129 727.838 163.58 730.299 167.124L736.049 163.131ZM715.643 142.455C713.665 140.968 711.594 139.509 709.429 138.08L705.571 143.92C707.622 145.275 709.577 146.652 711.438 148.051L715.643 142.455ZM709.429 138.08C707.286 136.664 705.157 135.33 703.044 134.075L699.471 140.095C701.485 141.29 703.519 142.565 705.571 143.92L709.429 138.08ZM690.005 127.236C685.299 125.096 680.682 123.354 676.164 121.988L674.137 128.688C678.343 129.96 682.669 131.589 687.107 133.608L690.005 127.236ZM661.638 118.809C656.481 118.122 651.488 117.939 646.678 118.216L647.081 125.204C651.435 124.954 655.983 125.117 660.713 125.747L661.638 118.809ZM631.762 120.665C626.811 122.038 622.135 123.93 617.761 126.265L621.058 132.44C624.987 130.342 629.185 128.644 633.633 127.411L631.762 120.665ZM605.283 134.769C601.448 138.026 597.963 141.668 594.853 145.61L600.349 149.945C603.183 146.353 606.346 143.049 609.814 140.104L605.283 134.769ZM586.702 158.198C584.385 162.61 582.455 167.241 580.934 172.014L587.604 174.139C589.002 169.75 590.775 165.497 592.899 161.452L586.702 158.198ZM577.635 186.605C576.958 191.545 576.706 196.555 576.905 201.56L583.9 201.281C583.717 196.695 583.947 192.097 584.57 187.555L577.635 186.605ZM578.868 216.427C579.977 221.283 581.549 226.062 583.611 230.69L590.005 227.842C588.134 223.642 586.703 219.296 585.693 214.87L578.868 216.427ZM591.07 243.742C593.927 247.747 597.233 251.549 601.005 255.086L605.793 249.979C602.359 246.76 599.358 243.307 596.768 239.677L591.07 243.742ZM612.785 264.241C616.81 266.827 621.189 269.169 625.93 271.231L628.721 264.811C624.314 262.894 620.268 260.728 616.569 258.352L612.785 264.241ZM639.911 276.174C644.454 277.447 649.256 278.499 654.323 279.31L655.429 272.398C650.614 271.627 646.074 270.631 641.8 269.433L639.911 276.174ZM668.903 280.916C673.583 281.213 678.455 281.326 683.523 281.243L683.408 274.244C678.517 274.324 673.832 274.215 669.347 273.93L668.903 280.916ZM698.149 280.493C702.873 280.094 707.748 279.538 712.777 278.817L711.784 271.888C706.883 272.591 702.143 273.131 697.56 273.518L698.149 280.493ZM726.905 276.43C729.319 275.963 731.765 275.46 734.244 274.92L732.756 268.08C730.328 268.608 727.934 269.101 725.574 269.558L726.905 276.43ZM734.244 274.92C736.622 274.402 738.987 273.871 741.338 273.326L739.757 266.507C737.437 267.045 735.103 267.569 732.756 268.08L734.244 274.92ZM755.317 269.887C760.018 268.662 764.665 267.384 769.257 266.052L767.308 259.329C762.777 260.643 758.192 261.904 753.553 263.113L755.317 269.887ZM783.082 261.837C787.698 260.36 792.257 258.829 796.759 257.248L794.44 250.644C789.999 252.203 785.502 253.713 780.948 255.171L783.082 261.837ZM810.283 252.286C814.82 250.548 819.297 248.76 823.713 246.923L821.025 240.46C816.67 242.271 812.254 244.035 807.779 245.749L810.283 252.286ZM836.979 241.185C841.404 239.196 845.765 237.16 850.063 235.078L847.012 228.778C842.773 230.83 838.473 232.839 834.109 234.8L836.979 241.185ZM862.956 228.608C867.253 226.374 871.485 224.096 875.651 221.777L872.248 215.661C868.139 217.947 863.966 220.193 859.727 222.397L862.956 228.608ZM888.182 214.57C892.357 212.088 896.463 209.567 900.5 207.011L896.755 201.097C892.773 203.618 888.724 206.105 884.605 208.552L888.182 214.57ZM912.593 199.111C916.62 196.4 920.574 193.654 924.455 190.879L920.384 185.184C916.555 187.922 912.655 190.63 908.683 193.305L912.593 199.111ZM936.079 182.321C939.949 179.389 943.742 176.429 947.459 173.447L943.079 167.987C939.411 170.929 935.669 173.849 931.851 176.742L936.079 182.321ZM958.59 164.265C962.296 161.121 965.922 157.959 969.467 154.783L964.796 149.569C961.297 152.704 957.72 155.824 954.062 158.926L958.59 164.265ZM980.084 145.009C983.621 141.665 987.071 138.311 990.436 134.954L985.492 129.998C982.171 133.312 978.765 136.622 975.274 139.923L980.084 145.009ZM1000.52 124.624C1003.88 121.086 1007.15 117.552 1010.33 114.028L1005.13 109.341C1001.99 112.82 998.766 116.309 995.446 119.801L1000.52 124.624ZM1019.86 103.175C1023.04 99.4521 1026.12 95.7491 1029.1 92.0747L1023.66 87.6669C1020.72 91.2946 1017.68 94.9505 1014.54 98.6262L1019.86 103.175ZM1038.04 80.7376C1041.04 76.8372 1043.92 72.9806 1046.68 69.1785L1041.02 65.0641C1038.29 68.817 1035.45 72.624 1032.49 76.4745L1038.04 80.7376ZM1054.98 57.418C1057.8 53.3157 1060.47 49.2953 1063.01 45.3716L1057.13 41.572C1054.63 45.4422 1051.99 49.4089 1049.21 53.4571L1054.98 57.418ZM1070.68 33.1295C1073.29 28.8119 1075.73 24.6477 1077.98 20.6606L1071.89 17.2173C1069.67 21.1425 1067.27 25.2448 1064.69 29.5006L1070.68 33.1295Z" fill="black"/>
</svg>
