<svg width="770" height="603" viewBox="0 0 770 603" fill="none" xmlns="http://www.w3.org/2000/svg">
<g clip-path="url(#clip0_681_11263)">
<path d="M2.14026 0L36.0203 22.03L22.1902 29.06L15.9302 32.25L0.000244141 40.35L2.14026 0ZM769.49 598.49V602.68C768.85 602.27 768.21 601.85 767.57 601.44L769.49 598.49ZM747.77 580.13C751.7 582.71 755.64 585.29 759.57 587.86L755.74 593.72C751.8 591.15 747.86 588.57 743.93 585.99L747.77 580.13ZM724.22 564.58C728.13 567.18 732.05 569.78 735.98 572.37L732.12 578.21C728.19 575.61 724.27 573.02 720.35 570.42L724.22 564.58ZM700.75 548.91C704.65 551.53 708.57 554.15 712.49 556.78L708.61 562.6C704.68 559.97 700.75 557.34 696.84 554.72L700.75 548.91ZM677.42 533.12C681.29 535.76 685.17 538.39 689.06 541.03L685.14 546.83C681.24 544.19 677.35 541.55 673.47 538.91L677.42 533.12ZM654.13 517.14C657.98 519.81 661.85 522.47 665.73 525.13L661.77 530.9C657.88 528.24 654.01 525.57 650.15 522.9L654.13 517.14ZM630.98 500.99C634.83 503.7 638.69 506.41 642.58 509.12L638.57 514.86C634.68 512.14 630.81 509.43 626.95 506.71L630.98 500.99ZM608.03 484.69C611.83 487.41 615.65 490.14 619.49 492.87L615.44 498.57C611.59 495.84 607.76 493.11 603.95 490.38L608.03 484.69ZM585.2 468.13C588.95 470.89 592.74 473.64 596.54 476.4L592.43 482.07C588.62 479.3 584.83 476.54 581.06 473.78L585.2 468.13ZM562.51 451.29C566.26 454.11 570.04 456.93 573.85 459.76L569.67 465.38C565.85 462.55 562.06 459.72 558.3 456.89L562.51 451.29ZM540.11 434.22C543.82 437.09 547.57 439.97 551.35 442.85L547.11 448.42C543.31 445.53 539.55 442.64 535.82 439.76L540.11 434.22ZM518.04 416.89C521.65 419.77 525.3 422.66 528.98 425.56L524.66 431.06C520.96 428.16 517.3 425.26 513.67 422.36L518.04 416.89ZM496.13 399.07C499.69 402.02 503.3 404.99 506.95 407.96L502.53 413.39C498.86 410.4 495.24 407.43 491.66 404.46L496.13 399.07ZM474.59 380.82C478.11 383.87 481.69 386.94 485.32 390.01L480.79 395.35C477.14 392.26 473.55 389.18 470 386.1L474.59 380.82ZM453.56 362.09C457.02 365.26 460.55 368.45 464.15 371.65L459.5 376.88C455.88 373.66 452.32 370.45 448.83 367.26L453.56 362.09ZM433.13 342.8C436.46 346.05 439.87 349.33 443.36 352.62L438.56 357.71C435.04 354.39 431.6 351.09 428.24 347.8L433.13 342.8ZM413.46 322.78C416.62 326.14 419.88 329.52 423.23 332.93L418.24 337.84C414.85 334.4 411.56 330.98 408.36 327.57L413.46 322.78ZM394.79 301.86C397.74 305.36 400.81 308.9 404 312.46L398.78 317.13C395.55 313.52 392.44 309.93 389.44 306.36L394.79 301.86ZM377.56 279.8C380.22 283.51 383.04 287.26 386 291.04L380.49 295.36C377.47 291.5 374.59 287.68 371.87 283.88L377.56 279.8ZM362.53 256.38C364.75 260.35 367.18 264.38 369.82 268.46L363.94 272.26C361.23 268.06 358.72 263.91 356.42 259.8L362.53 256.38ZM351.16 231.49C352.58 235.62 354.29 239.83 356.26 244.12L349.91 247.05C347.84 242.57 346.05 238.15 344.54 233.78L351.16 231.49ZM345.86 204.81C346.01 209.15 346.55 213.62 347.48 218.21L340.63 219.61C339.62 214.67 339.02 209.81 338.86 205.04L345.86 204.81ZM343.94 176.13L350.41 178.82C348.7 182.93 347.48 187.17 346.73 191.53L339.83 190.34C340.67 185.48 342.03 180.74 343.94 176.13ZM360.62 151.82L365.56 156.78C362.2 160.13 359.3 163.58 356.84 167.12L351.09 163.13C353.8 159.22 356.98 155.44 360.62 151.82ZM377.71 138.08L381.56 143.92C379.51 145.27 377.56 146.65 375.7 148.05L371.49 142.45C373.47 140.97 375.54 139.51 377.71 138.08ZM384.09 134.07L387.66 140.09C385.65 141.29 383.62 142.56 381.56 143.92L377.71 138.08C379.85 136.66 381.98 135.33 384.09 134.07ZM410.97 121.99L413 128.69C408.79 129.96 404.47 131.59 400.03 133.61L397.13 127.23C401.84 125.09 406.45 123.35 410.97 121.99ZM440.46 118.21L440.05 125.2C435.7 124.95 431.15 125.11 426.42 125.74L425.5 118.81C430.65 118.12 435.65 117.94 440.46 118.21ZM455.37 120.66C460.32 122.04 465 123.93 469.37 126.26L466.08 132.44C462.15 130.34 457.95 128.64 453.5 127.41L455.37 120.66ZM481.85 134.77C485.69 138.02 489.17 141.67 492.28 145.61L486.79 149.94C483.95 146.35 480.79 143.05 477.32 140.1L481.85 134.77ZM500.43 158.2C502.75 162.61 504.68 167.24 506.2 172.01L499.53 174.14C498.13 169.75 496.36 165.49 494.24 161.45L500.43 158.2ZM502.57 187.55L509.5 186.6C510.18 191.54 510.43 196.55 510.23 201.56L503.24 201.28C503.42 196.69 503.19 192.09 502.57 187.55ZM501.44 214.87L508.27 216.42C507.16 221.28 505.59 226.06 503.52 230.69L497.13 227.84C499 223.64 500.43 219.29 501.44 214.87ZM490.37 239.67L496.07 243.74C493.21 247.74 489.9 251.55 486.13 255.08L481.34 249.98C484.78 246.76 487.78 243.3 490.37 239.67ZM470.57 258.35L474.35 264.24C470.33 266.82 465.95 269.17 461.21 271.23L458.41 264.81C462.82 262.89 466.87 260.73 470.57 258.35ZM445.34 269.43L447.22 276.17C442.68 277.44 437.88 278.5 432.81 279.31L431.71 272.4C436.52 271.62 441.06 270.63 445.34 269.43ZM403.73 274.24C408.62 274.32 413.3 274.21 417.79 273.93L418.23 280.91C413.55 281.21 408.68 281.32 403.61 281.24L403.73 274.24ZM376.58 271.89C381.06 272.59 385.39 273.13 389.58 273.52L389.04 280.49C384.72 280.09 380.27 279.54 375.67 278.81L376.58 271.89ZM354.38 268.08C356.81 268.61 359.2 269.1 361.56 269.56L360.23 276.43C357.82 275.96 355.37 275.46 352.89 274.92L354.38 268.08ZM347.38 266.5C349.7 267.04 352.03 267.57 354.38 268.08L352.89 274.92C350.51 274.4 348.15 273.87 345.8 273.32L347.38 266.5ZM319.83 259.33C324.36 260.64 328.94 261.9 333.58 263.11L331.82 269.88C327.12 268.66 322.47 267.38 317.88 266.05L319.83 259.33ZM292.7 250.64C297.14 252.2 301.63 253.71 306.19 255.17L304.05 261.83C299.44 260.36 294.88 258.83 290.38 257.25L292.7 250.64ZM266.11 240.46C270.47 242.27 274.88 244.03 279.36 245.75L276.85 252.28C272.32 250.55 267.84 248.76 263.42 246.92L266.11 240.46ZM240.12 228.78C244.36 230.83 248.66 232.84 253.03 234.8L250.16 241.18C245.73 239.19 241.37 237.16 237.07 235.08L240.12 228.78ZM214.89 215.66C219 217.94 223.17 220.19 227.41 222.39L224.18 228.61C219.88 226.37 215.65 224.09 211.48 221.77L214.89 215.66ZM190.38 201.09C194.36 203.62 198.41 206.1 202.53 208.55L198.95 214.57C194.78 212.09 190.67 209.56 186.64 207.01L190.38 201.09ZM166.75 185.18C170.58 187.92 174.48 190.63 178.45 193.3L174.54 199.11C170.52 196.4 166.56 193.65 162.68 190.88L166.75 185.18ZM144.06 167.98C147.72 170.93 151.47 173.85 155.28 176.74L151.06 182.32C147.19 179.39 143.39 176.43 139.68 173.44L144.06 167.98ZM122.34 149.57C125.84 152.7 129.42 155.82 133.07 158.92L128.55 164.26C124.84 161.12 121.21 157.96 117.67 154.78L122.34 149.57ZM101.64 130C104.96 133.31 108.37 136.62 111.86 139.92L107.05 145.01C103.51 141.66 100.06 138.31 96.7003 134.95L101.64 130ZM82.0103 109.34C85.1503 112.82 88.3702 116.31 91.6902 119.8L86.6202 124.62C83.2602 121.08 79.9902 117.55 76.8102 114.03L82.0103 109.34ZM63.4802 87.66C66.4202 91.29 69.4602 94.95 72.6002 98.62L67.2802 103.17C64.1002 99.45 61.0202 95.75 58.0402 92.07L63.4802 87.66ZM46.1202 65.06C48.8502 68.81 51.6902 72.62 54.6502 76.47L49.1002 80.73C46.1002 76.83 43.2202 72.98 40.4602 69.18L46.1202 65.06ZM30.0103 41.57C32.5103 45.44 35.1502 49.41 37.9302 53.45L32.1602 57.42C29.3402 53.31 26.6702 49.29 24.1302 45.37L30.0103 41.57ZM15.2502 17.21C17.3902 21 19.7002 24.95 22.1902 29.06C22.2702 29.2 22.3603 29.35 22.4503 29.5L16.4602 33.13C16.2802 32.84 16.1102 32.54 15.9302 32.25C13.5202 28.24 11.2602 24.37 9.16022 20.66L15.2502 17.21Z" fill="black"/>
</g>
<defs>
<clipPath id="clip0_681_11263">
<rect width="769.49" height="602.68" fill="white" transform="matrix(-1 0 0 1 769.49 0)"/>
</clipPath>
</defs>
</svg>
