<svg width="230" height="140" viewBox="0 0 230 140" fill="none" xmlns="http://www.w3.org/2000/svg">
<rect width="230" height="140" fill="white"/>
<g clip-path="url(#clip0_655_16348)">
<path d="M89.7389 63.5511C87.168 63.5511 84.9518 61.6388 84.6564 59.0499C84.3395 56.2682 86.3609 53.7585 89.171 53.4448L144.992 47.2108C147.797 46.8971 150.338 48.8974 150.655 51.6798C150.972 54.4614 148.95 56.9712 146.14 57.2849L90.3194 63.5189C90.1247 63.5409 89.9307 63.5511 89.7389 63.5511Z" fill="black"/>
<path d="M102.288 75.5265C100.239 75.5016 98.4978 73.5673 98.295 70.9755C98.0773 68.1909 99.7189 65.7009 101.962 65.4151L128.262 62.058C130.499 61.7729 132.5 63.7967 132.718 66.582C132.935 69.3666 131.294 71.8565 129.051 72.1424L102.75 75.4994C102.595 75.5192 102.44 75.528 102.288 75.5265Z" fill="black"/>
<path d="M112.124 87.0989C110.009 86.9955 108.238 85.1272 108.02 82.6167C107.78 79.8365 109.537 77.3224 111.945 77.0013L125.785 75.1572C128.195 74.8361 130.341 76.8298 130.581 79.61C130.822 82.3902 129.064 84.9043 126.656 85.2254L112.816 87.0695C112.582 87.1011 112.35 87.1099 112.123 87.0989H112.124Z" fill="black"/>
<path d="M119.347 97.7204C117.41 97.6699 115.745 96.113 115.483 93.9793C115.194 91.6125 116.742 89.4319 118.943 89.1094L127.434 87.8648C129.63 87.5408 131.654 89.1988 131.943 91.5671C132.233 93.9339 130.684 96.1145 128.484 96.437L119.992 97.6816C119.774 97.7138 119.559 97.7263 119.346 97.7204H119.347Z" fill="black"/>
<path d="M128.612 106.993C126.743 106.886 125.152 105.358 124.881 103.256C124.572 100.85 126.108 98.6037 128.314 98.238L132.57 97.5321C134.774 97.1649 136.814 98.8192 137.123 101.225C137.433 103.631 135.896 105.877 133.691 106.243L129.435 106.949C129.157 106.995 128.882 107.009 128.612 106.993H128.612Z" fill="black"/>
<path d="M73.1695 51.3776C71.0192 51.3322 69.2073 49.3817 69.0162 46.7877C68.8111 44.0009 70.5557 41.5271 72.9126 41.2632L155.344 32.0225C157.694 31.7579 159.778 33.8029 159.984 36.5905C160.189 39.3772 158.444 41.8511 156.087 42.1149L73.656 51.3556C73.4923 51.3739 73.3302 51.3813 73.1695 51.3776Z" fill="#008080"/>
</g>
<defs>
<clipPath id="clip0_655_16348">
<rect width="91" height="75" fill="white" transform="translate(69 32)"/>
</clipPath>
</defs>
</svg>
