<svg width="230" height="140" viewBox="0 0 230 140" fill="none" xmlns="http://www.w3.org/2000/svg">
<rect width="230" height="140" fill="white"/>
<g clip-path="url(#clip0_655_16369)">
<path d="M98.0955 68.001C96.7469 70.4645 94.6459 72.4635 91.7782 73.9697C88.9106 75.476 85.2906 76.2361 80.9182 76.2361H72.003V96.4791H61.3417V43.7601H80.9182C85.0351 43.7601 88.5415 44.464 91.4375 45.8717C94.3335 47.2794 96.5056 49.2221 97.9536 51.6856C99.4016 54.1491 100.126 56.9504 100.126 60.0756C100.126 62.891 99.4584 65.5375 98.1097 68.001H98.0955ZM87.0083 65.6924C88.428 64.355 89.1378 62.4828 89.1378 60.0615C89.1378 54.9233 86.2418 52.3613 80.4497 52.3613H71.9888V67.6913H80.4497C83.3883 67.6913 85.5745 67.0297 86.9941 65.6924H87.0083Z" fill="#231F20"/>
<path d="M114.804 93.537C110.645 91.2284 107.337 88.0188 104.895 83.9082C102.454 79.7977 101.233 75.1663 101.233 69.9718C101.233 64.7774 102.454 60.2164 104.895 56.1058C107.337 51.9953 110.631 48.7857 114.804 46.4771C118.964 44.1543 123.535 43 128.518 43C133.501 43 138.129 44.1543 142.26 46.4771C146.405 48.7998 149.67 52.0094 152.083 56.1058C154.497 60.2164 155.703 64.8337 155.703 69.9718C155.703 75.11 154.497 79.7977 152.083 83.9082C149.67 88.0188 146.377 91.2284 142.217 93.537C138.058 95.8598 133.486 97.0141 128.504 97.0141C123.521 97.0141 118.95 95.8598 114.79 93.537H114.804ZM136.979 85.4145C139.42 83.9786 141.323 81.9234 142.686 79.2628C144.063 76.5881 144.744 73.4911 144.744 69.9718C144.744 66.4526 144.063 63.3697 142.686 60.7231C141.309 58.0766 139.406 56.0495 136.979 54.6418C134.537 53.2341 131.726 52.5302 128.518 52.5302C125.309 52.5302 122.484 53.2341 120.029 54.6418C117.558 56.0495 115.656 58.0766 114.279 60.7231C112.902 63.3697 112.221 66.4526 112.221 69.9718C112.221 73.4911 112.902 76.5881 114.279 79.2628C115.656 81.9374 117.573 83.9786 120.029 85.4145C122.484 86.8504 125.324 87.5683 128.518 87.5683C131.712 87.5683 134.537 86.8504 136.979 85.4145Z" fill="#231F20"/>
<path d="M168.168 95.1136C165.201 93.8608 162.844 92.0448 161.126 89.6799C159.394 87.3149 158.514 84.5135 158.457 81.2899H169.885C170.042 83.4577 170.808 85.1611 172.214 86.428C173.605 87.6809 175.521 88.3144 177.963 88.3144C180.405 88.3144 182.406 87.7231 183.826 86.5406C185.246 85.3582 185.955 83.8097 185.955 81.8952C185.955 80.3326 185.473 79.0516 184.507 78.038C183.542 77.0386 182.335 76.2362 180.887 75.659C179.439 75.0818 177.452 74.4343 174.911 73.7304C171.461 72.7309 168.65 71.7315 166.492 70.7461C164.335 69.7607 162.475 68.2826 160.928 66.2836C159.38 64.2987 158.599 61.6381 158.599 58.3159C158.599 55.1908 159.38 52.4739 160.956 50.1653C162.532 47.8566 164.732 46.0688 167.586 44.8441C170.425 43.6053 173.676 42.9859 177.338 42.9859C182.818 42.9859 187.276 44.3092 190.711 46.9557C194.147 49.6022 196.035 53.2904 196.39 58.0203H184.664C184.564 56.2044 183.783 54.7122 182.335 53.5297C180.887 52.3472 178.971 51.756 176.586 51.756C174.499 51.756 172.838 52.2909 171.603 53.3467C170.354 54.4025 169.743 55.9369 169.743 57.9499C169.743 59.3576 170.212 60.526 171.149 61.4692C172.086 62.3983 173.25 63.1585 174.655 63.7356C176.046 64.3128 178.02 64.9885 180.561 65.7346C184.01 66.7482 186.836 67.7476 189.022 68.7612C191.208 69.7747 193.082 71.281 194.658 73.294C196.233 75.3071 197.014 77.9536 197.014 81.2195C197.014 84.0349 196.276 86.6533 194.8 89.0745C193.323 91.4958 191.165 93.4103 188.326 94.8462C185.487 96.282 182.108 97 178.19 97C174.485 97 171.149 96.3665 168.168 95.1136Z" fill="#231F20"/>
<path d="M35.2918 84.598C36.1578 82.9651 37.4071 81.7122 39.0254 80.8394C40.658 79.9666 42.5887 79.5443 44.8316 79.5443C47.0746 79.5443 48.9769 79.9807 50.5953 80.8394C52.2136 81.7122 53.4487 82.951 54.3005 84.598C55.1522 86.245 55.5781 88.1877 55.5781 90.4682V96.5777H34V90.4682C34 88.1877 34.4259 86.231 35.2918 84.598ZM51.4329 83.8942C49.8571 82.3879 47.6567 81.6277 44.8458 81.6277C42.035 81.6277 39.792 82.3879 38.1879 83.8942C36.5979 85.4004 35.8029 87.5965 35.8029 90.4682V94.5224H53.8036V90.4682C53.8036 87.5965 53.0228 85.4004 51.447 83.8942H51.4329Z" fill="#231F20"/>
<path d="M47.9832 61.2018V74.5751C49.2609 74.5188 50.354 74.2231 51.2483 73.6882C52.1569 73.1533 52.8383 72.4635 53.3068 71.5907C53.7752 70.7179 54.0024 69.7747 54.0024 68.7612C54.0024 67.4239 53.6617 66.2977 52.9802 65.3827C52.2988 64.4677 51.3903 63.8623 50.2262 63.5667V61.3848C51.873 61.7789 53.2216 62.6235 54.2579 63.9046C55.2942 65.1997 55.8195 66.8185 55.8195 68.7612C55.8195 70.2815 55.4646 71.6329 54.7548 72.8436C54.045 74.0542 53.037 74.9833 51.731 75.659C50.4249 76.3347 48.8918 76.6726 47.1456 76.6726C45.3995 76.6726 43.8663 76.3347 42.5461 75.6731C41.2259 75.0115 40.2179 74.0683 39.5223 72.8717C38.8267 71.6752 38.4718 70.2956 38.4718 68.7612C38.4718 67.2268 38.8267 65.8754 39.5223 64.7351C40.2179 63.5808 41.1691 62.6939 42.3473 62.0745C43.5256 61.4551 44.8459 61.1454 46.2797 61.1454C47.0179 61.1454 47.5857 61.1595 47.9832 61.2018ZM43.0146 63.9609C42.1344 64.4677 41.4672 65.1434 41.0129 66.0161C40.5586 66.8889 40.3315 67.8321 40.3315 68.8457C40.3315 70.3801 40.8426 71.6892 41.8789 72.7732C42.901 73.8571 44.3632 74.4624 46.2371 74.5751V63.2289C44.9878 63.2148 43.9089 63.4541 43.0288 63.9468L43.0146 63.9609Z" fill="#231F20"/>
<path d="M53.4771 51.6293L38.7273 46.1955V44.0135L55.5781 50.475V52.8118L38.7273 59.2873V57.0772L53.4913 51.6434L53.4771 51.6293Z" fill="#231F20"/>
</g>
<defs>
<clipPath id="clip0_655_16369">
<rect width="163" height="54" fill="white" transform="translate(34 43)"/>
</clipPath>
</defs>
</svg>
