<svg width="230" height="140" viewBox="0 0 230 140" fill="none" xmlns="http://www.w3.org/2000/svg">
<rect width="230" height="140" fill="white"/>
<path d="M63.9892 34C65.4005 34 66.8238 34.2665 68.2578 34.7995C69.6918 35.3301 70.9693 36.1499 72.0914 37.2599C73.2159 38.3675 74.0668 39.6822 74.644 41.2051C75.22 42.7279 75.5092 44.3531 75.5092 46.0783C75.5092 48.3983 74.9893 50.4791 73.9509 52.322C72.9148 54.1661 71.5094 55.5891 69.7348 56.5908C67.959 57.5902 66.0326 58.0899 63.9557 58.0899H57.0915V34H63.9892ZM61.8094 54.0019H62.4834C65.22 54.0019 67.2635 53.3357 68.6115 52.0032C69.9595 50.6707 70.6335 48.685 70.6335 46.0449C70.6335 43.4465 69.9691 41.4716 68.6402 40.12C67.3137 38.7661 65.2619 38.088 62.4834 38.088H61.8094V54.0019Z" fill="#548BE8"/>
<path d="M87.4795 46.4257C86.9251 46.045 86.3048 45.8546 85.6201 45.8546C84.4657 45.8546 83.6053 46.2437 83.0388 47.0206C82.4712 47.7987 82.188 49.0812 82.188 50.8706V58.0899H77.6947V42.3996H82.188V44.0319H82.2501C82.6995 43.3502 83.2551 42.8232 83.9184 42.452C84.5804 42.0784 85.3297 41.8904 86.165 41.8904C86.7864 41.913 87.4078 42.0415 88.0293 42.2759L87.4795 46.4257Z" fill="#548BE8"/>
<path d="M92.9035 50.9658C92.9035 52.2638 93.1819 53.2917 93.74 54.0496C94.2969 54.8051 95.0569 55.1822 96.0201 55.1822C96.7682 55.1822 97.3836 54.9811 97.8652 54.5778C98.3456 54.1721 98.7364 53.6593 99.0363 53.0407L103.176 53.7117C102.618 55.3107 101.701 56.5266 100.427 57.3571C99.1558 58.1851 97.686 58.5991 96.0201 58.5991C93.6874 58.5991 91.7921 57.8448 90.3366 56.3339C88.8834 54.8205 88.1569 52.8396 88.1569 50.3899C88.1569 47.8141 88.8404 45.7535 90.2075 44.208C91.577 42.6637 93.4401 41.8904 95.7954 41.8904C98.1472 41.8904 99.9804 42.6471 101.297 44.1604C102.613 45.6714 103.272 47.8106 103.272 50.5803V50.9658H92.9035ZM99.0363 48.1865C98.8858 47.2062 98.532 46.434 97.9752 45.8689C97.4207 45.305 96.7682 45.0218 96.0201 45.0218C95.3127 45.0218 94.6793 45.2776 94.1224 45.788C93.5679 46.2996 93.2046 47.0991 93.0326 48.1865H99.0363Z" fill="#548BE8"/>
<path d="M115.818 42.3996H120.249V58.0899H115.818V56.6527H115.756C115.284 57.2714 114.657 57.7509 113.877 58.0899C113.096 58.429 112.3 58.5991 111.487 58.5991C109.412 58.5991 107.684 57.7854 106.305 56.1578C104.925 54.5278 104.236 52.5303 104.236 50.1663C104.236 48.6981 104.534 47.3347 105.134 46.0783C105.733 44.8196 106.583 43.8071 107.682 43.0421C108.784 42.2747 110.032 41.8904 111.425 41.8904C112.238 41.8904 113.033 42.0617 113.815 42.4044C114.595 42.7446 115.263 43.2324 115.818 43.8701V42.3996ZM112.481 45.8546C111.477 45.8546 110.61 46.2865 109.881 47.1491C109.154 48.0093 108.791 49.036 108.791 50.2281C108.791 51.4214 109.154 52.4553 109.881 53.331C110.61 54.2042 111.488 54.6397 112.515 54.6397C113.563 54.6397 114.451 54.209 115.177 53.3452C115.904 52.4827 116.267 51.444 116.267 50.2281C116.267 49.017 115.897 47.9855 115.158 47.1348C114.422 46.2817 113.529 45.8546 112.481 45.8546Z" fill="#548BE8"/>
<path d="M136.422 44.3508C136.915 43.5834 137.574 42.9826 138.396 42.5471C139.22 42.1093 140.094 41.8904 141.015 41.8904C142.704 41.8904 143.96 42.4234 144.782 43.4894C145.607 44.5531 146.02 46.1069 146.02 48.1532V58.0899H141.527V49.3049C141.527 48.0676 141.37 47.1193 141.058 46.459C140.749 45.7999 140.199 45.4692 139.409 45.4692C138.597 45.4692 137.991 45.838 137.593 46.5732C137.197 47.3061 137 48.4935 137 50.1329V58.0899H132.507V48.986C132.507 47.8129 132.325 46.9337 131.962 46.3496C131.598 45.763 131.063 45.4692 130.356 45.4692C129.651 45.4692 129.079 45.7785 128.64 46.3972C128.202 47.0134 127.985 48.0342 127.985 49.4619V58.0899H123.491V42.3996H127.985V43.8083H128.047C128.496 43.1896 129.067 42.7161 129.763 42.3853C130.457 42.0558 131.169 41.8904 131.9 41.8904C133.91 41.8904 135.418 42.7113 136.422 44.3508Z" fill="#548BE8"/>
<path d="M72.7676 63.5036L78.7379 79.3843L84.4502 63.5036H87.8488L91.4769 88.236H86.7255L84.8039 73.2833H84.737L79.2494 88.5548H77.6146L72.3183 73.2833H72.2514L70.1051 88.236H65.3537L69.4311 63.5036H72.7676Z" fill="#FB7E11"/>
<path d="M103.894 72.5456H108.325V88.2359H103.894V86.7987H103.832C103.36 87.4174 102.734 87.8969 101.954 88.2359C101.172 88.575 100.376 88.7451 99.5636 88.7451C97.489 88.7451 95.761 87.9314 94.382 86.3038C93.0017 84.6738 92.3122 82.6763 92.3122 80.3123C92.3122 78.8441 92.611 77.4807 93.2109 76.2243C93.8096 74.9656 94.6592 73.9531 95.7586 73.1881C96.8604 72.4207 98.1081 72.0364 99.5014 72.0364C100.314 72.0364 101.11 72.2077 101.891 72.5504C102.672 72.8906 103.34 73.3784 103.894 74.0161V72.5456ZM100.558 76.0006C99.554 76.0006 98.6864 76.4325 97.9575 77.2951C97.2309 78.1552 96.8676 79.182 96.8676 80.3741C96.8676 81.5674 97.2309 82.6013 97.9575 83.477C98.6864 84.3502 99.5648 84.7857 100.591 84.7857C101.639 84.7857 102.527 84.355 103.254 83.4912C103.98 82.6287 104.344 81.59 104.344 80.3741C104.344 79.163 103.973 78.1315 103.235 77.2808C102.499 76.4277 101.606 76.0006 100.558 76.0006Z" fill="#FB7E11"/>
<path d="M121.354 76.5717C120.799 76.191 120.179 76.0006 119.494 76.0006C118.34 76.0006 117.479 76.3897 116.913 77.1666C116.345 77.9447 116.062 79.2272 116.062 81.0166V88.2359H111.569V72.5456H116.062V74.1779H116.124C116.573 73.4962 117.129 72.9692 117.792 72.598C118.454 72.2244 119.204 72.0364 120.039 72.0364C120.66 72.059 121.282 72.1875 121.903 72.4219L121.354 76.5717Z" fill="#FB7E11"/>
<path d="M127.84 61.1434V78.2994H127.902L132.62 72.5459H138.461L131.817 79.4511L138.973 88.2362H133.069L127.902 81.5593H127.84V88.2362H123.347V61.1434H127.84Z" fill="#FB7E11"/>
<path d="M150.494 72.5456H154.925V88.2359H150.494V86.7987H150.432C149.96 87.4174 149.333 87.8969 148.553 88.2359C147.772 88.575 146.976 88.7451 146.163 88.7451C144.089 88.7451 142.361 87.9314 140.981 86.3038C139.601 84.6738 138.912 82.6763 138.912 80.3123C138.912 78.8441 139.21 77.4807 139.81 76.2243C140.409 74.9656 141.259 73.9531 142.358 73.1881C143.46 72.4207 144.708 72.0364 146.101 72.0364C146.914 72.0364 147.709 72.2077 148.491 72.5504C149.271 72.8906 149.939 73.3784 150.494 74.0161V72.5456ZM147.157 76.0006C146.154 76.0006 145.286 76.4325 144.557 77.2951C143.83 78.1552 143.467 79.182 143.467 80.3741C143.467 81.5674 143.83 82.6013 144.557 83.477C145.286 84.3502 146.164 84.7857 147.191 84.7857C148.239 84.7857 149.127 84.355 149.853 83.4912C150.58 82.6287 150.943 81.59 150.943 80.3741C150.943 79.163 150.573 78.1315 149.834 77.2808C149.098 76.4277 148.205 76.0006 147.157 76.0006Z" fill="#FB7E11"/>
<path d="M171.996 72.546L164.008 84.4672H171.485V88.2363H156.528L164.587 76.3199H157.78V72.546H171.996Z" fill="#FB7E11"/>
<path d="M61.4265 95.904C61.2281 95.5649 61.0106 95.3222 60.7716 95.1758C60.535 95.0271 60.2506 94.9522 59.916 94.9522C59.4858 94.9522 59.132 95.0842 58.8548 95.3472C58.5776 95.6113 58.4389 95.9325 58.4389 96.3132C58.4389 96.6083 58.5537 96.8605 58.7831 97.0699C59.0149 97.2793 59.2946 97.459 59.6196 97.6077C59.947 97.7576 60.2434 97.8861 60.5087 97.9932C60.7764 98.1014 61.0847 98.2644 61.436 98.4833C61.7862 98.6999 62.0551 98.9711 62.2439 99.2971C62.4315 99.6243 62.5259 99.9967 62.5259 100.415C62.5259 100.899 62.404 101.351 62.1626 101.772C61.92 102.191 61.5842 102.523 61.154 102.766C60.7262 103.01 60.2578 103.133 59.7487 103.133C59.0568 103.133 58.4628 102.931 57.9657 102.524C57.4686 102.114 57.1459 101.56 57.0001 100.858L57.9609 100.592C58.0374 101.075 58.2382 101.467 58.5632 101.772C58.8883 102.074 59.2766 102.224 59.7296 102.224C60.2195 102.224 60.6437 102.057 61.0011 101.724C61.3608 101.389 61.5412 100.984 61.5412 100.511C61.5412 100.092 61.4038 99.7492 61.1301 99.4827C60.8588 99.2138 60.3605 98.9342 59.634 98.6451C58.9074 98.3572 58.3624 98.0348 57.9992 97.6791C57.6359 97.321 57.4542 96.8546 57.4542 96.2799C57.4542 95.6268 57.6956 95.0902 58.1808 94.6714C58.6648 94.2526 59.2468 94.0432 59.9255 94.0432C60.4251 94.0432 60.8684 94.161 61.2544 94.3954C61.6392 94.6274 61.9583 94.9641 62.2104 95.4043L61.4265 95.904Z" fill="black"/>
<path d="M64.9003 93.3678V98.1458L64.9242 98.1696C65.1178 97.9031 65.3401 97.7008 65.5887 97.5604C65.8396 97.4212 66.1408 97.351 66.4921 97.351C67.1004 97.351 67.564 97.539 67.8831 97.9126C68.2046 98.2838 68.3659 98.8691 68.3659 99.6686V102.981H67.429V99.7876C67.429 99.2356 67.3442 98.8358 67.1757 98.5884C67.0096 98.3385 66.7084 98.2124 66.2722 98.2124C65.7775 98.2124 65.4261 98.3813 65.2158 98.7168C65.0055 99.05 64.9003 99.5711 64.9003 100.278V102.981H63.9634V93.3678H64.9003Z" fill="black"/>
<path d="M69.6511 100.254C69.6511 99.734 69.7801 99.2486 70.0382 98.7976C70.2964 98.3479 70.6465 97.9934 71.0899 97.7364C71.5356 97.4794 72.0196 97.3509 72.543 97.3509C73.0652 97.3509 73.5468 97.4794 73.9866 97.7364C74.4288 97.9934 74.7813 98.3455 75.043 98.7929C75.3035 99.2379 75.435 99.7245 75.435 100.254C75.435 100.775 75.3059 101.258 75.0478 101.705C74.7897 102.153 74.4371 102.504 73.9914 102.757C73.548 103.007 73.0652 103.133 72.543 103.133C72.0196 103.133 71.5344 103.005 71.0851 102.748C70.6358 102.491 70.2832 102.141 70.0287 101.696C69.7765 101.249 69.6511 100.768 69.6511 100.254ZM72.5335 98.2123C71.979 98.2123 71.5153 98.4098 71.1424 98.8024C70.772 99.1962 70.588 99.6757 70.588 100.24C70.588 100.662 70.6895 101.034 70.8939 101.358C71.097 101.679 71.3444 101.912 71.6348 102.058C71.9276 102.2 72.2299 102.272 72.543 102.272C72.9027 102.272 73.2313 102.188 73.5277 102.019C73.8241 101.852 74.0595 101.61 74.2352 101.296C74.4096 100.982 74.4981 100.63 74.4981 100.24C74.4981 99.8851 74.418 99.5519 74.2591 99.2402C74.0989 98.9297 73.8671 98.6811 73.5612 98.4931C73.2576 98.3063 72.9159 98.2123 72.5335 98.2123Z" fill="black"/>
<path d="M77.6349 102.21H77.611V106.06H76.6741V97.5032H77.611V98.2837H77.6349C77.8608 97.9827 78.138 97.7531 78.4667 97.5936C78.7941 97.4318 79.1502 97.3509 79.5326 97.3509C80.0226 97.3509 80.4707 97.4794 80.8758 97.7364C81.2833 97.9934 81.6 98.3455 81.8271 98.7929C82.0529 99.2379 82.1665 99.7245 82.1665 100.254C82.1665 100.781 82.0565 101.268 81.8366 101.715C81.6191 102.162 81.306 102.512 80.895 102.762C80.4863 103.009 80.0274 103.133 79.5183 103.133C79.1454 103.133 78.7941 103.055 78.4667 102.9C78.138 102.745 77.8608 102.514 77.6349 102.21ZM79.3462 98.2123C79.0403 98.2123 78.7499 98.2956 78.4762 98.4598C78.205 98.6216 77.9851 98.8583 77.8166 99.1688C77.6469 99.4806 77.5632 99.8184 77.5632 100.183C77.5632 100.767 77.7281 101.262 78.0604 101.667C78.395 102.071 78.8311 102.272 79.3701 102.272C79.7358 102.272 80.0596 102.185 80.3405 102.01C80.6201 101.833 80.834 101.585 80.981 101.268C81.1304 100.951 81.2057 100.594 81.2057 100.197C81.2057 99.6138 81.0336 99.1379 80.6894 98.7691C80.3476 98.3979 79.9007 98.2123 79.3462 98.2123Z" fill="black"/>
<path d="M91.0861 95.904C90.8877 95.5649 90.6702 95.3222 90.4312 95.1758C90.1946 95.0271 89.9102 94.9522 89.5756 94.9522C89.1454 94.9522 88.7916 95.0842 88.5144 95.3472C88.2372 95.6113 88.0985 95.9325 88.0985 96.3132C88.0985 96.6083 88.2133 96.8605 88.4427 97.0699C88.6745 97.2793 88.9542 97.459 89.2792 97.6077C89.6067 97.7576 89.903 97.8861 90.1683 97.9932C90.436 98.1014 90.7443 98.2644 91.0957 98.4833C91.4458 98.6999 91.7147 98.9711 91.9035 99.2971C92.0911 99.6243 92.1855 99.9967 92.1855 100.415C92.1855 100.899 92.0636 101.351 91.8222 101.772C91.5796 102.191 91.2438 102.523 90.8136 102.766C90.3858 103.01 89.9174 103.133 89.4083 103.133C88.7164 103.133 88.1224 102.931 87.6253 102.524C87.1282 102.114 86.8055 101.56 86.6597 100.858L87.6205 100.592C87.697 101.075 87.8978 101.467 88.2228 101.772C88.5479 102.074 88.9362 102.224 89.3892 102.224C89.8791 102.224 90.3034 102.057 90.6607 101.724C91.0204 101.389 91.2008 100.984 91.2008 100.511C91.2008 100.092 91.0634 99.7492 90.7897 99.4827C90.5185 99.2138 90.0201 98.9342 89.2936 98.6451C88.567 98.3572 88.0221 98.0348 87.6588 97.6791C87.2955 97.321 87.1138 96.8546 87.1138 96.2799C87.1138 95.6268 87.3552 95.0902 87.8404 94.6714C88.3244 94.2526 88.9064 94.0432 89.5851 94.0432C90.0847 94.0432 90.528 94.161 90.914 94.3954C91.2988 94.6274 91.6179 94.9641 91.87 95.4043L91.0861 95.904Z" fill="black"/>
<path d="M97.7097 98.2837V97.5032H98.6466V102.981H97.7097V102.224H97.6858C97.2006 102.831 96.5684 103.133 95.7881 103.133C95.0233 103.133 94.3923 102.855 93.8951 102.295C93.4004 101.734 93.1542 101.053 93.1542 100.254C93.1542 99.4139 93.404 98.7203 93.9047 98.1742C94.4042 97.6258 95.0376 97.3509 95.8024 97.3509C96.1848 97.3509 96.5361 97.4342 96.8588 97.5984C97.1839 97.7602 97.4587 97.9886 97.6858 98.2837H97.7097ZM95.9076 98.2123C95.4069 98.2123 94.9826 98.4027 94.6361 98.7834C94.2883 99.1641 94.115 99.6305 94.115 100.183C94.115 100.773 94.2835 101.27 94.6217 101.672C94.9623 102.072 95.3937 102.272 95.9171 102.272C96.4716 102.272 96.9162 102.081 97.2508 101.701C97.5878 101.32 97.7575 100.819 97.7575 100.197C97.7575 99.6293 97.5854 99.1569 97.2412 98.7786C96.897 98.4015 96.4525 98.2123 95.9076 98.2123Z" fill="black"/>
<path d="M102.79 94.2765C102.662 94.236 102.554 94.2039 102.465 94.1813C102.376 94.1599 102.272 94.148 102.154 94.148C101.874 94.148 101.676 94.2313 101.562 94.3955C101.449 94.5573 101.394 94.8595 101.394 95.2997V97.5031H102.79V98.3644H101.394V102.981H100.458V98.3644H99.946V97.5031H100.458V95.0665C100.458 94.6477 100.512 94.3098 100.625 94.0528C100.74 93.7958 100.926 93.5948 101.184 93.4484C101.442 93.2997 101.754 93.2224 102.121 93.2152C102.238 93.2152 102.358 93.2271 102.479 93.2486C102.6 93.2712 102.704 93.2985 102.79 93.3295V94.2765Z" fill="black"/>
<path d="M108.373 100.439H104.052C104.068 100.986 104.246 101.428 104.588 101.767C104.932 102.104 105.354 102.272 105.854 102.272C106.204 102.272 106.514 102.184 106.782 102.005C107.052 101.824 107.3 101.536 107.527 101.139L108.326 101.596C108.06 102.085 107.711 102.464 107.279 102.733C106.845 103 106.348 103.133 105.787 103.133C105.248 103.133 104.772 103.005 104.358 102.748C103.943 102.491 103.628 102.147 103.412 101.715C103.198 101.284 103.091 100.815 103.091 100.311C103.091 99.753 103.198 99.2486 103.412 98.7976C103.628 98.3479 103.939 97.9934 104.344 97.7364C104.751 97.4794 105.225 97.3509 105.763 97.3509C106.286 97.3509 106.748 97.4782 107.15 97.7316C107.551 97.9827 107.857 98.3301 108.068 98.7739C108.278 99.2188 108.383 99.7149 108.383 100.263C108.383 100.321 108.379 100.38 108.373 100.439ZM107.389 99.6495C107.312 99.2212 107.121 98.8762 106.815 98.612C106.512 98.3455 106.165 98.2123 105.773 98.2123C105.391 98.2123 105.03 98.3503 104.693 98.6263C104.358 98.9023 104.16 99.2438 104.1 99.6495H107.389Z" fill="black"/>
<path d="M110.571 103.133C110.392 103.133 110.238 103.067 110.107 102.938C109.98 102.804 109.916 102.647 109.916 102.467C109.916 102.295 109.98 102.147 110.107 102.019C110.238 101.893 110.392 101.829 110.571 101.829C110.749 101.829 110.902 101.893 111.03 102.019C111.16 102.147 111.226 102.295 111.226 102.467C111.226 102.647 111.16 102.804 111.03 102.938C110.902 103.067 110.749 103.133 110.571 103.133Z" fill="black"/>
<path d="M118.733 94.1908C119.542 94.1908 120.24 94.3146 120.826 94.562C121.412 94.8071 121.899 95.1367 122.289 95.5519C122.677 95.9683 122.965 96.4359 123.154 96.9558C123.342 97.4769 123.436 98.0313 123.436 98.6214C123.436 99.3769 123.262 100.08 122.915 100.73C122.567 101.377 122.055 101.915 121.376 102.343C120.697 102.769 119.81 102.981 118.718 102.981H116.868V94.1908H118.733ZM118.79 102.072C119.328 102.072 119.815 101.993 120.253 101.834C120.689 101.675 121.075 101.438 121.409 101.12C121.746 100.8 122.005 100.419 122.184 99.9777C122.362 99.534 122.451 99.0711 122.451 98.5881C122.451 97.9504 122.309 97.3734 122.026 96.8558C121.742 96.3395 121.335 95.9171 120.807 95.59C120.281 95.264 119.574 95.0998 118.685 95.0998H117.853V102.072H118.79Z" fill="black"/>
<path d="M127.332 98.4598C127.239 98.3908 127.152 98.3313 127.069 98.2837C126.986 98.2361 126.888 98.2123 126.773 98.2123C126.419 98.2123 126.149 98.3682 125.965 98.6787C125.784 98.9904 125.693 99.4913 125.693 100.183V102.981H124.756V97.5032H125.693V98.0981H125.717C125.943 97.7935 126.143 97.5936 126.319 97.4984C126.493 97.4009 126.699 97.3509 126.936 97.3509C127.075 97.3509 127.218 97.3747 127.361 97.4223C127.507 97.4699 127.645 97.5318 127.777 97.6079L127.332 98.4598Z" fill="black"/>
<path d="M133.304 100.439H128.983C128.998 100.986 129.177 101.428 129.518 101.767C129.862 102.104 130.284 102.272 130.785 102.272C131.135 102.272 131.445 102.184 131.712 102.005C131.982 101.824 132.231 101.536 132.458 101.139L133.256 101.596C132.991 102.085 132.642 102.464 132.21 102.733C131.776 103 131.279 103.133 130.718 103.133C130.179 103.133 129.702 103.005 129.289 102.748C128.874 102.491 128.559 102.147 128.342 101.715C128.129 101.284 128.022 100.815 128.022 100.311C128.022 99.753 128.129 99.2486 128.342 98.7976C128.559 98.3479 128.869 97.9934 129.275 97.7364C129.682 97.4794 130.155 97.3509 130.694 97.3509C131.216 97.3509 131.679 97.4782 132.08 97.7316C132.482 97.9827 132.788 98.3301 132.998 98.7739C133.209 99.2188 133.314 99.7149 133.314 100.263C133.314 100.321 133.31 100.38 133.304 100.439ZM132.319 99.6495C132.243 99.2212 132.052 98.8762 131.746 98.612C131.442 98.3455 131.096 98.2123 130.704 98.2123C130.321 98.2123 129.96 98.3503 129.623 98.6263C129.289 98.9023 129.091 99.2438 129.031 99.6495H132.319Z" fill="black"/>
<path d="M138.676 98.2837V97.5032H139.613V102.981H138.676V102.224H138.652C138.167 102.831 137.534 103.133 136.754 103.133C135.989 103.133 135.358 102.855 134.861 102.295C134.366 101.734 134.12 101.053 134.12 100.254C134.12 99.4139 134.37 98.7203 134.871 98.1742C135.37 97.6258 136.004 97.3509 136.768 97.3509C137.151 97.3509 137.502 97.4342 137.825 97.5984C138.15 97.7602 138.425 97.9886 138.652 98.2837H138.676ZM136.874 98.2123C136.373 98.2123 135.949 98.4027 135.602 98.7834C135.254 99.1641 135.081 99.6305 135.081 100.183C135.081 100.773 135.25 101.27 135.588 101.672C135.928 102.072 136.36 102.272 136.883 102.272C137.438 102.272 137.882 102.081 138.217 101.701C138.554 101.32 138.723 100.819 138.723 100.197C138.723 99.6293 138.551 99.1569 138.207 98.7786C137.863 98.4015 137.419 98.2123 136.874 98.2123Z" fill="black"/>
<path d="M145.147 98.2599C145.31 97.9743 145.537 97.7531 145.831 97.5936C146.124 97.4318 146.445 97.3509 146.796 97.3509C147.376 97.3509 147.814 97.546 148.111 97.9363C148.407 98.3241 148.555 98.8738 148.555 99.5876V102.981H147.618V99.7304C147.618 99.1784 147.535 98.7881 147.37 98.5597C147.207 98.3289 146.954 98.2123 146.61 98.2123C146.205 98.2123 145.904 98.3598 145.706 98.6549C145.512 98.9499 145.415 99.4056 145.415 100.021V102.981H144.478V99.8208C144.478 99.2628 144.393 98.8548 144.225 98.5978C144.059 98.3408 143.816 98.2123 143.498 98.2123C143.099 98.2123 142.797 98.3634 142.59 98.6644C142.382 98.963 142.279 99.4389 142.279 100.092V102.981H141.342V97.5032H142.279V98.0981H142.303C142.449 97.8732 142.635 97.6924 142.862 97.5556C143.092 97.4199 143.346 97.3509 143.627 97.3509C143.945 97.3509 144.241 97.4318 144.516 97.5936C144.79 97.7531 145 97.9743 145.147 98.2599Z" fill="black"/>
<path d="M155.447 94.1908C156.374 94.1908 157.087 94.3955 157.588 94.8047C158.088 95.214 158.339 95.8029 158.339 96.5703C158.339 96.9296 158.269 97.2544 158.133 97.5459C157.996 97.835 157.776 98.0813 157.473 98.2835C157.963 98.4073 158.365 98.6773 158.678 99.0926C158.99 99.509 159.147 99.992 159.147 100.544C159.147 101.305 158.87 101.903 158.32 102.333C157.771 102.765 157.012 102.981 156.044 102.981H153.936V94.1908H155.447ZM154.921 98.0646H155.375C155.945 98.0646 156.361 98.0063 156.623 97.8885C156.883 97.7719 157.07 97.6066 157.182 97.3936C157.297 97.1783 157.354 96.9034 157.354 96.5703C157.354 96.0504 157.218 95.6756 156.948 95.4472C156.68 95.2164 156.152 95.0998 155.365 95.0998H154.921V98.0646ZM155.963 102.072C156.69 102.072 157.237 101.938 157.607 101.672C157.977 101.403 158.162 101 158.162 100.463C158.162 99.9492 157.971 99.5613 157.588 99.2972C157.206 99.0343 156.62 98.9022 155.834 98.9022H154.921V102.072H155.963Z" fill="black"/>
<path d="M161.698 97.5032V102.981H160.761V97.5032H161.698ZM160.561 95.4188C160.561 95.2474 160.629 95.0987 160.766 94.9714C160.903 94.8417 161.058 94.7763 161.23 94.7763C161.408 94.7763 161.562 94.8417 161.694 94.9714C161.827 95.0987 161.894 95.2474 161.894 95.4188C161.894 95.6186 161.827 95.784 161.694 95.9137C161.562 96.041 161.408 96.1041 161.23 96.1041C161.048 96.1041 160.891 96.0422 160.757 95.9185C160.625 95.7947 160.561 95.6282 160.561 95.4188Z" fill="black"/>
<path d="M167.681 98.2837V97.5032H168.618V103.181C168.618 104.097 168.36 104.801 167.843 105.294C167.327 105.789 166.687 106.036 165.922 106.036C165.14 106.036 164.499 105.804 163.995 105.341C163.491 104.877 163.233 104.27 163.221 103.519H164.153C164.153 103.997 164.316 104.392 164.641 104.704C164.966 105.014 165.392 105.17 165.922 105.17C166.498 105.17 166.935 104.99 167.232 104.632C167.53 104.276 167.681 103.687 167.681 102.867V102.224H167.657C167.437 102.504 167.156 102.726 166.816 102.89C166.478 103.052 166.12 103.133 165.745 103.133C165.238 103.133 164.785 103.005 164.387 102.748C163.992 102.491 163.682 102.143 163.46 101.705C163.237 101.265 163.125 100.785 163.125 100.263C163.125 99.728 163.24 99.2379 163.47 98.7929C163.699 98.3455 164.016 97.9934 164.421 97.7364C164.828 97.4794 165.283 97.3509 165.783 97.3509C166.166 97.3509 166.516 97.4342 166.835 97.5984C167.156 97.7602 167.43 97.9886 167.657 98.2837H167.681ZM165.874 98.2123C165.549 98.2123 165.249 98.298 164.975 98.4693C164.701 98.6406 164.484 98.8809 164.325 99.1879C164.165 99.496 164.086 99.828 164.086 100.183C164.086 100.782 164.254 101.281 164.588 101.677C164.923 102.074 165.355 102.272 165.888 102.272C166.443 102.272 166.887 102.079 167.222 101.691C167.557 101.301 167.724 100.804 167.724 100.197C167.724 99.6138 167.549 99.1379 167.203 98.7691C166.855 98.3979 166.412 98.2123 165.874 98.2123Z" fill="black"/>
<path d="M171.353 103.133C171.174 103.133 171.02 103.067 170.889 102.938C170.762 102.804 170.698 102.647 170.698 102.467C170.698 102.295 170.762 102.147 170.889 102.019C171.02 101.893 171.174 101.829 171.353 101.829C171.531 101.829 171.684 101.893 171.812 102.019C171.942 102.147 172.008 102.295 172.008 102.467C172.008 102.647 171.942 102.804 171.812 102.938C171.684 103.067 171.531 103.133 171.353 103.133Z" fill="black"/>
</svg>
